<svg width="971" height="280" viewBox="0 0 971 280" fill="none" xmlns="http://www.w3.org/2000/svg">
<path d="M44.672 156.448H27.904V196H12.8V98.976H48.128C70.144 98.976 81.152 108.576 81.152 127.776C81.152 135.2 79.4027 141.216 75.904 145.824C72.4907 150.432 67.328 153.547 60.416 155.168L85.632 196H68.608L44.672 156.448ZM27.904 143.392H48.128C54.1013 143.392 58.5387 142.069 61.44 139.424C64.3413 136.779 65.792 132.768 65.792 127.392C65.792 122.016 64.3413 118.133 61.44 115.744C58.5387 113.269 54.1013 112.032 48.128 112.032H27.904V143.392ZM133.996 198.176C126.231 198.176 119.66 196.512 114.284 193.184C108.908 189.856 104.855 185.376 102.124 179.744C99.3933 174.027 98.028 167.584 98.028 160.416C98.028 153.333 99.3933 146.933 102.124 141.216C104.855 135.499 108.908 131.019 114.284 127.776C119.66 124.448 126.231 122.784 133.996 122.784C141.676 122.784 148.204 124.448 153.58 127.776C158.956 131.019 162.967 135.499 165.612 141.216C168.343 146.933 169.708 153.333 169.708 160.416C169.708 167.584 168.343 174.027 165.612 179.744C162.967 185.376 158.956 189.856 153.58 193.184C148.204 196.512 141.676 198.176 133.996 198.176ZM133.996 185.248C140.567 185.248 145.601 182.987 149.1 178.464C152.684 173.941 154.476 167.925 154.476 160.416C154.476 152.992 152.684 147.019 149.1 142.496C145.601 137.973 140.567 135.712 133.996 135.712C127.34 135.712 122.22 137.973 118.636 142.496C115.052 147.019 113.26 152.992 113.26 160.416C113.26 167.925 115.052 173.941 118.636 178.464C122.22 182.987 127.34 185.248 133.996 185.248ZM218.746 198.176C210.981 198.176 204.41 196.512 199.034 193.184C193.658 189.856 189.605 185.376 186.874 179.744C184.143 174.027 182.778 167.584 182.778 160.416C182.778 153.333 184.143 146.933 186.874 141.216C189.605 135.499 193.658 131.019 199.034 127.776C204.41 124.448 210.981 122.784 218.746 122.784C226.426 122.784 232.954 124.448 238.33 127.776C243.706 131.019 247.717 135.499 250.362 141.216C253.093 146.933 254.458 153.333 254.458 160.416C254.458 167.584 253.093 174.027 250.362 179.744C247.717 185.376 243.706 189.856 238.33 193.184C232.954 196.512 226.426 198.176 218.746 198.176ZM218.746 185.248C225.317 185.248 230.351 182.987 233.85 178.464C237.434 173.941 239.226 167.925 239.226 160.416C239.226 152.992 237.434 147.019 233.85 142.496C230.351 137.973 225.317 135.712 218.746 135.712C212.09 135.712 206.97 137.973 203.386 142.496C199.802 147.019 198.01 152.992 198.01 160.416C198.01 167.925 199.802 173.941 203.386 178.464C206.97 182.987 212.09 185.248 218.746 185.248ZM353.544 123.296C362.333 123.296 368.819 125.643 373 130.336C377.267 134.944 379.4 142.539 379.4 153.12V196H364.808V153.12C364.808 147.232 363.784 143.008 361.736 140.448C359.773 137.888 356.232 136.608 351.112 136.608C344.968 136.608 338.781 139.509 332.552 145.312C332.808 147.701 332.936 150.304 332.936 153.12V196H318.344V153.12C318.344 147.232 317.32 143.008 315.272 140.448C313.309 137.888 309.768 136.608 304.648 136.608C298.76 136.608 292.701 139.296 286.472 144.672V196H271.88V124.832H286.472V131.872C292.957 126.155 299.827 123.296 307.08 123.296C312.712 123.296 317.363 124.235 321.032 126.112C324.787 127.989 327.645 130.933 329.608 134.944C337.373 127.179 345.352 123.296 353.544 123.296ZM626.6 198.176C613.971 198.176 602.707 195.829 592.808 191.136V177.184C602.877 182.475 614.141 185.12 626.6 185.12C633.171 185.12 637.992 183.797 641.064 181.152C644.136 178.507 645.672 175.008 645.672 170.656C645.672 166.475 644.264 163.317 641.448 161.184C638.632 159.051 634.365 157.216 628.648 155.68L619.944 153.248C614.995 151.797 610.728 150.133 607.144 148.256C603.56 146.379 600.531 143.648 598.056 140.064C595.667 136.395 594.472 131.659 594.472 125.856C594.472 116.469 597.245 109.344 602.792 104.48C608.339 99.616 616.147 97.184 626.216 97.184C632.275 97.184 637.565 97.7387 642.088 98.848C646.696 99.872 651.347 101.536 656.04 103.84V117.408C646.995 112.629 637.053 110.24 626.216 110.24C615.123 110.24 609.576 115.104 609.576 124.832C609.661 129.099 610.941 132.256 613.416 134.304C615.976 136.267 620.115 138.016 625.832 139.552L634.664 141.984C639.955 143.435 644.435 145.141 648.104 147.104C651.859 149.067 654.888 151.925 657.192 155.68C659.581 159.349 660.776 164.171 660.776 170.144C660.691 178.848 657.619 185.717 651.56 190.752C645.501 195.701 637.181 198.176 626.6 198.176ZM690.01 162.848C690.351 169.76 692.314 175.264 695.898 179.36C699.482 183.456 705.071 185.504 712.666 185.504C715.994 185.504 719.279 185.077 722.522 184.224C725.765 183.285 729.306 181.92 733.146 180.128L737.242 191.904C733.231 194.123 729.135 195.701 724.954 196.64C720.773 197.664 716.165 198.176 711.13 198.176C703.365 198.176 696.751 196.597 691.29 193.44C685.914 190.283 681.818 185.845 679.002 180.128C676.186 174.411 674.778 167.797 674.778 160.288C674.778 152.352 676.229 145.568 679.13 139.936C682.031 134.304 685.999 130.037 691.034 127.136C696.069 124.235 701.658 122.784 707.802 122.784C717.445 122.784 724.997 125.728 730.458 131.616C736.005 137.419 738.778 145.909 738.778 157.088V162.848H690.01ZM707.802 135.456C698.415 135.456 692.698 140.661 690.65 151.072H723.418C722.991 145.696 721.498 141.771 718.938 139.296C716.378 136.736 712.666 135.456 707.802 135.456ZM790.595 123.296C799.555 123.296 806.211 125.643 810.563 130.336C814.915 134.944 817.091 142.539 817.091 153.12V196H802.499V153.12C802.499 147.232 801.432 143.008 799.299 140.448C797.166 137.888 793.454 136.608 788.163 136.608C782.019 136.608 775.747 139.296 769.347 144.672V196H754.755V124.832H769.347V132C776.088 126.197 783.171 123.296 790.595 123.296ZM861.295 198.176C855.919 198.176 851.14 197.707 846.959 196.768C842.863 195.915 838.511 194.421 833.903 192.288V178.464C842.095 183.157 851.226 185.504 861.295 185.504C865.562 185.504 868.634 184.693 870.511 183.072C872.474 181.365 873.455 179.104 873.455 176.288C873.455 173.728 872.73 171.808 871.279 170.528C869.828 169.248 867.482 168.181 864.239 167.328L854.895 165.152C848.58 163.701 843.716 161.355 840.303 158.112C836.975 154.869 835.311 150.176 835.311 144.032C835.311 137.205 837.487 131.957 841.839 128.288C846.276 124.619 852.847 122.784 861.551 122.784C869.231 122.784 877.039 124.32 884.975 127.392V140.576C877.807 137.163 870.17 135.456 862.063 135.456C857.796 135.456 854.724 136.224 852.847 137.76C851.055 139.211 850.159 141.088 850.159 143.392C850.159 145.867 850.884 147.701 852.335 148.896C853.786 150.091 855.962 151.072 858.863 151.84L868.335 154.016C875.076 155.552 880.068 157.899 883.311 161.056C886.639 164.128 888.303 169.035 888.303 175.776C888.303 183.029 885.828 188.576 880.879 192.416C876.015 196.256 869.487 198.176 861.295 198.176ZM916.635 162.848C916.976 169.76 918.939 175.264 922.523 179.36C926.107 183.456 931.696 185.504 939.291 185.504C942.619 185.504 945.904 185.077 949.147 184.224C952.39 183.285 955.931 181.92 959.771 180.128L963.867 191.904C959.856 194.123 955.76 195.701 951.579 196.64C947.398 197.664 942.79 198.176 937.755 198.176C929.99 198.176 923.376 196.597 917.915 193.44C912.539 190.283 908.443 185.845 905.627 180.128C902.811 174.411 901.403 167.797 901.403 160.288C901.403 152.352 902.854 145.568 905.755 139.936C908.656 134.304 912.624 130.037 917.659 127.136C922.694 124.235 928.283 122.784 934.427 122.784C944.07 122.784 951.622 125.728 957.083 131.616C962.63 137.419 965.403 145.909 965.403 157.088V162.848H916.635ZM934.427 135.456C925.04 135.456 919.323 140.661 917.275 151.072H950.043C949.616 145.696 948.123 141.771 945.563 139.296C943.003 136.736 939.291 135.456 934.427 135.456Z" fill="#2A2A2A"/>
<rect x="395" y="168" width="128" height="128" rx="19" transform="rotate(-45 395 168)" fill="#F33737"/>
<g clip-path="url(#clip0_4_21)">
<path d="M531.405 163.246L517.008 148.848V132.216C517.008 129.209 514.571 126.772 511.559 126.772C508.554 126.772 506.117 129.209 506.117 132.216V137.958L495.397 127.237C490.097 121.94 480.882 121.949 475.594 127.247L439.594 163.246C437.469 165.375 437.469 168.82 439.594 170.947C441.72 173.075 445.172 173.075 447.298 170.947L483.294 134.947C484.466 133.78 486.533 133.78 487.7 134.943L523.702 170.947C524.77 172.011 526.161 172.541 527.553 172.541C528.947 172.541 530.341 172.011 531.406 170.947C533.532 168.821 533.532 165.375 531.405 163.246Z" fill="white"/>
<path d="M487.391 145.282C486.345 144.236 484.652 144.236 483.609 145.282L451.944 176.938C451.444 177.437 451.16 178.12 451.16 178.832V201.92C451.16 207.338 455.553 211.731 460.971 211.731H476.649V187.452H494.348V211.731H510.026C515.444 211.731 519.837 207.338 519.837 201.92V178.832C519.837 178.12 519.556 177.437 519.053 176.938L487.391 145.282Z" fill="white"/>
</g>
<path d="M429.001 74.3441C460.481 43.0064 511.52 43.0064 543.001 74.3441M391 50.1721C443.468 -2.05735 528.533 -2.05735 581 50.1721" stroke="#F33737" stroke-width="22" stroke-linecap="round" stroke-linejoin="round"/>
<defs>
<clipPath id="clip0_4_21">
<rect width="95" height="95" fill="white" transform="translate(438 120)"/>
</clipPath>
</defs>
</svg>
